<mxfile host="app.diagrams.net" modified="2021-02-02T11:45:29.937Z" agent="5.0 (Windows NT 6.1; Win64; x64) AppleWebKit/537.36 (KHTML, like Gecko) Chrome/88.0.4324.104 Safari/537.36" etag="OIpJQeRAlaoD9cubYJDS" version="14.2.9" type="github">
  <diagram name="Page-1" id="9361dd3d-8414-5efd-6122-117bd74ce7a7">
    <mxGraphModel dx="868" dy="-318" grid="1" gridSize="10" guides="1" tooltips="1" connect="1" arrows="1" fold="1" page="0" pageScale="1.5" pageWidth="826" pageHeight="1169" background="#ffffff" math="0" shadow="0">
      <root>
        <mxCell id="0" />
        <mxCell id="1" parent="0" />
        <mxCell id="69" value="" style="fillColor=#DEE8FF;strokeColor=none" parent="1" vertex="1">
          <mxGeometry x="65" y="830" width="1570" height="800" as="geometry" />
        </mxCell>
        <mxCell id="IjBPq4v_4HBdx7vBGjAM-98" value="图形堡垒登陆" style="rounded=0;whiteSpace=wrap;html=1;" vertex="1" parent="1">
          <mxGeometry x="65" y="860" width="120" height="60" as="geometry" />
        </mxCell>
        <mxCell id="IjBPq4v_4HBdx7vBGjAM-100" value="图形堡垒水印工具" style="rounded=0;whiteSpace=wrap;html=1;" vertex="1" parent="1">
          <mxGeometry x="264.06" y="860" width="120" height="60" as="geometry" />
        </mxCell>
        <mxCell id="IjBPq4v_4HBdx7vBGjAM-101" value="" style="endArrow=none;dashed=1;html=1;dashPattern=1 3;strokeWidth=2;entryX=0.425;entryY=0.983;entryDx=0;entryDy=0;entryPerimeter=0;" edge="1" parent="1" source="IjBPq4v_4HBdx7vBGjAM-103" target="IjBPq4v_4HBdx7vBGjAM-98">
          <mxGeometry width="50" height="50" relative="1" as="geometry">
            <mxPoint x="116" y="1190" as="sourcePoint" />
            <mxPoint x="250" y="970" as="targetPoint" />
          </mxGeometry>
        </mxCell>
        <mxCell id="IjBPq4v_4HBdx7vBGjAM-102" value="" style="endArrow=none;dashed=1;html=1;dashPattern=1 3;strokeWidth=2;entryX=0.5;entryY=1;entryDx=0;entryDy=0;" edge="1" parent="1" source="IjBPq4v_4HBdx7vBGjAM-140" target="IjBPq4v_4HBdx7vBGjAM-100">
          <mxGeometry width="50" height="50" relative="1" as="geometry">
            <mxPoint x="324" y="1460" as="sourcePoint" />
            <mxPoint x="233.06" y="970" as="targetPoint" />
          </mxGeometry>
        </mxCell>
        <mxCell id="IjBPq4v_4HBdx7vBGjAM-103" value="" style="fillColor=#CC4125;strokeColor=#660000" vertex="1" parent="1">
          <mxGeometry x="110" y="970" width="10" height="70" as="geometry" />
        </mxCell>
        <mxCell id="IjBPq4v_4HBdx7vBGjAM-104" value="" style="endArrow=none;dashed=1;html=1;dashPattern=1 3;strokeWidth=2;entryX=0.425;entryY=0.983;entryDx=0;entryDy=0;entryPerimeter=0;" edge="1" parent="1" source="IjBPq4v_4HBdx7vBGjAM-135" target="IjBPq4v_4HBdx7vBGjAM-103">
          <mxGeometry width="50" height="50" relative="1" as="geometry">
            <mxPoint x="114" y="1310" as="sourcePoint" />
            <mxPoint x="116" y="918.98" as="targetPoint" />
          </mxGeometry>
        </mxCell>
        <mxCell id="IjBPq4v_4HBdx7vBGjAM-116" style="edgeStyle=orthogonalEdgeStyle;rounded=0;orthogonalLoop=1;jettySize=auto;html=1;entryX=-0.478;entryY=0.114;entryDx=0;entryDy=0;entryPerimeter=0;" edge="1" parent="1" source="IjBPq4v_4HBdx7vBGjAM-105">
          <mxGeometry relative="1" as="geometry">
            <mxPoint x="511.22" y="1005.8299999999999" as="targetPoint" />
          </mxGeometry>
        </mxCell>
        <mxCell id="IjBPq4v_4HBdx7vBGjAM-105" value="" style="fillColor=#CC4125;strokeColor=#660000" vertex="1" parent="1">
          <mxGeometry x="320" y="970" width="10" height="70" as="geometry" />
        </mxCell>
        <mxCell id="IjBPq4v_4HBdx7vBGjAM-106" value="" style="endArrow=classic;html=1;exitX=1;exitY=0.5;exitDx=0;exitDy=0;entryX=0;entryY=0.5;entryDx=0;entryDy=0;" edge="1" parent="1" source="IjBPq4v_4HBdx7vBGjAM-103" target="IjBPq4v_4HBdx7vBGjAM-105">
          <mxGeometry width="50" height="50" relative="1" as="geometry">
            <mxPoint x="200" y="1080" as="sourcePoint" />
            <mxPoint x="250" y="1030" as="targetPoint" />
          </mxGeometry>
        </mxCell>
        <mxCell id="IjBPq4v_4HBdx7vBGjAM-107" value="登陆图形堡垒参数启动水印工具" style="text;html=1;resizable=0;autosize=1;align=center;verticalAlign=middle;points=[];fillColor=none;strokeColor=none;rounded=0;" vertex="1" parent="1">
          <mxGeometry x="133.12" y="980" width="180" height="20" as="geometry" />
        </mxCell>
        <mxCell id="IjBPq4v_4HBdx7vBGjAM-109" value="" style="fillColor=#CC4125;strokeColor=#660000" vertex="1" parent="1">
          <mxGeometry x="319.06" y="1080" width="10" height="70" as="geometry" />
        </mxCell>
        <mxCell id="IjBPq4v_4HBdx7vBGjAM-111" value="" style="endArrow=classic;html=1;exitX=0;exitY=0.5;exitDx=0;exitDy=0;" edge="1" parent="1" source="IjBPq4v_4HBdx7vBGjAM-109">
          <mxGeometry width="50" height="50" relative="1" as="geometry">
            <mxPoint x="400" y="1090" as="sourcePoint" />
            <mxPoint x="120" y="1115" as="targetPoint" />
          </mxGeometry>
        </mxCell>
        <mxCell id="IjBPq4v_4HBdx7vBGjAM-112" value="工具已经启动,则退出" style="text;html=1;resizable=0;autosize=1;align=center;verticalAlign=middle;points=[];fillColor=none;strokeColor=none;rounded=0;" vertex="1" parent="1">
          <mxGeometry x="152.5" y="1090" width="130" height="20" as="geometry" />
        </mxCell>
        <mxCell id="IjBPq4v_4HBdx7vBGjAM-113" value="水印界面" style="rounded=0;whiteSpace=wrap;html=1;" vertex="1" parent="1">
          <mxGeometry x="462" y="860" width="120" height="60" as="geometry" />
        </mxCell>
        <mxCell id="IjBPq4v_4HBdx7vBGjAM-121" style="edgeStyle=orthogonalEdgeStyle;rounded=0;orthogonalLoop=1;jettySize=auto;html=1;" edge="1" parent="1">
          <mxGeometry relative="1" as="geometry">
            <mxPoint x="330" y="1090" as="targetPoint" />
            <mxPoint x="510" y="1090" as="sourcePoint" />
          </mxGeometry>
        </mxCell>
        <mxCell id="IjBPq4v_4HBdx7vBGjAM-118" value="传入水印参数" style="text;html=1;resizable=0;autosize=1;align=center;verticalAlign=middle;points=[];fillColor=none;strokeColor=none;rounded=0;" vertex="1" parent="1">
          <mxGeometry x="384.06" y="977" width="90" height="20" as="geometry" />
        </mxCell>
        <mxCell id="IjBPq4v_4HBdx7vBGjAM-122" value="参数有误退出" style="text;html=1;resizable=0;autosize=1;align=center;verticalAlign=middle;points=[];fillColor=none;strokeColor=none;rounded=0;" vertex="1" parent="1">
          <mxGeometry x="385" y="1060" width="90" height="20" as="geometry" />
        </mxCell>
        <mxCell id="IjBPq4v_4HBdx7vBGjAM-123" value="二维码生成" style="rounded=0;whiteSpace=wrap;html=1;" vertex="1" parent="1">
          <mxGeometry x="660" y="860" width="120" height="60" as="geometry" />
        </mxCell>
        <mxCell id="IjBPq4v_4HBdx7vBGjAM-125" value="" style="endArrow=none;dashed=1;html=1;dashPattern=1 3;strokeWidth=2;entryX=0.5;entryY=1;entryDx=0;entryDy=0;" edge="1" parent="1" source="IjBPq4v_4HBdx7vBGjAM-127">
          <mxGeometry width="50" height="50" relative="1" as="geometry">
            <mxPoint x="519.78" y="1310" as="sourcePoint" />
            <mxPoint x="519.8399999999999" y="920" as="targetPoint" />
          </mxGeometry>
        </mxCell>
        <mxCell id="IjBPq4v_4HBdx7vBGjAM-126" value="" style="endArrow=none;dashed=1;html=1;dashPattern=1 3;strokeWidth=2;entryX=0.5;entryY=1;entryDx=0;entryDy=0;" edge="1" parent="1" source="IjBPq4v_4HBdx7vBGjAM-133">
          <mxGeometry width="50" height="50" relative="1" as="geometry">
            <mxPoint x="727.5" y="1310" as="sourcePoint" />
            <mxPoint x="727.56" y="920" as="targetPoint" />
          </mxGeometry>
        </mxCell>
        <mxCell id="IjBPq4v_4HBdx7vBGjAM-131" style="edgeStyle=orthogonalEdgeStyle;rounded=0;orthogonalLoop=1;jettySize=auto;html=1;" edge="1" parent="1" source="IjBPq4v_4HBdx7vBGjAM-127">
          <mxGeometry relative="1" as="geometry">
            <mxPoint x="720" y="1047" as="targetPoint" />
          </mxGeometry>
        </mxCell>
        <mxCell id="IjBPq4v_4HBdx7vBGjAM-127" value="" style="fillColor=#CC4125;strokeColor=#660000" vertex="1" parent="1">
          <mxGeometry x="513.78" y="997" width="10" height="100" as="geometry" />
        </mxCell>
        <mxCell id="IjBPq4v_4HBdx7vBGjAM-128" value="" style="endArrow=none;dashed=1;html=1;dashPattern=1 3;strokeWidth=2;entryX=0.5;entryY=1;entryDx=0;entryDy=0;" edge="1" parent="1" source="IjBPq4v_4HBdx7vBGjAM-129" target="IjBPq4v_4HBdx7vBGjAM-127">
          <mxGeometry width="50" height="50" relative="1" as="geometry">
            <mxPoint x="519.78" y="1310" as="sourcePoint" />
            <mxPoint x="519.8399999999999" y="920" as="targetPoint" />
          </mxGeometry>
        </mxCell>
        <mxCell id="IjBPq4v_4HBdx7vBGjAM-129" value="" style="fillColor=#CC4125;strokeColor=#660000" vertex="1" parent="1">
          <mxGeometry x="514" y="1130" width="10" height="100" as="geometry" />
        </mxCell>
        <mxCell id="IjBPq4v_4HBdx7vBGjAM-130" value="" style="endArrow=none;dashed=1;html=1;dashPattern=1 3;strokeWidth=2;entryX=0.5;entryY=1;entryDx=0;entryDy=0;" edge="1" parent="1" source="IjBPq4v_4HBdx7vBGjAM-146" target="IjBPq4v_4HBdx7vBGjAM-129">
          <mxGeometry width="50" height="50" relative="1" as="geometry">
            <mxPoint x="519" y="1570" as="sourcePoint" />
            <mxPoint x="518.78" y="1097" as="targetPoint" />
          </mxGeometry>
        </mxCell>
        <mxCell id="IjBPq4v_4HBdx7vBGjAM-132" value="传入二维码生成参数" style="text;html=1;resizable=0;autosize=1;align=center;verticalAlign=middle;points=[];fillColor=none;strokeColor=none;rounded=0;" vertex="1" parent="1">
          <mxGeometry x="560" y="1020" width="120" height="20" as="geometry" />
        </mxCell>
        <mxCell id="IjBPq4v_4HBdx7vBGjAM-137" style="edgeStyle=orthogonalEdgeStyle;rounded=0;orthogonalLoop=1;jettySize=auto;html=1;" edge="1" parent="1">
          <mxGeometry relative="1" as="geometry">
            <mxPoint x="530" y="1140" as="targetPoint" />
            <mxPoint x="720" y="1140" as="sourcePoint" />
          </mxGeometry>
        </mxCell>
        <mxCell id="IjBPq4v_4HBdx7vBGjAM-133" value="" style="fillColor=#CC4125;strokeColor=#660000" vertex="1" parent="1">
          <mxGeometry x="722.5" y="1040" width="10" height="110" as="geometry" />
        </mxCell>
        <mxCell id="IjBPq4v_4HBdx7vBGjAM-134" value="" style="endArrow=none;dashed=1;html=1;dashPattern=1 3;strokeWidth=2;entryX=0.5;entryY=1;entryDx=0;entryDy=0;" edge="1" parent="1" target="IjBPq4v_4HBdx7vBGjAM-133">
          <mxGeometry width="50" height="50" relative="1" as="geometry">
            <mxPoint x="727.5" y="1310" as="sourcePoint" />
            <mxPoint x="727.56" y="920" as="targetPoint" />
          </mxGeometry>
        </mxCell>
        <mxCell id="IjBPq4v_4HBdx7vBGjAM-135" value="" style="fillColor=#CC4125;strokeColor=#660000" vertex="1" parent="1">
          <mxGeometry x="110" y="1100" width="10" height="70" as="geometry" />
        </mxCell>
        <mxCell id="IjBPq4v_4HBdx7vBGjAM-136" value="" style="endArrow=none;dashed=1;html=1;dashPattern=1 3;strokeWidth=2;entryX=0.425;entryY=0.983;entryDx=0;entryDy=0;entryPerimeter=0;" edge="1" parent="1" source="IjBPq4v_4HBdx7vBGjAM-150" target="IjBPq4v_4HBdx7vBGjAM-135">
          <mxGeometry width="50" height="50" relative="1" as="geometry">
            <mxPoint x="120" y="1550" as="sourcePoint" />
            <mxPoint x="114.25" y="1038.81" as="targetPoint" />
          </mxGeometry>
        </mxCell>
        <mxCell id="IjBPq4v_4HBdx7vBGjAM-138" value="&lt;span style=&quot;color: rgb(0 , 0 , 0) ; font-family: &amp;#34;helvetica&amp;#34; ; font-size: 12px ; font-style: normal ; font-weight: 400 ; letter-spacing: normal ; text-align: center ; text-indent: 0px ; text-transform: none ; word-spacing: 0px ; background-color: rgb(255 , 255 , 255) ; display: inline ; float: none&quot;&gt;传出二维码&lt;/span&gt;" style="text;whiteSpace=wrap;html=1;" vertex="1" parent="1">
          <mxGeometry x="582" y="1110" width="68" height="30" as="geometry" />
        </mxCell>
        <mxCell id="IjBPq4v_4HBdx7vBGjAM-139" value="" style="fillColor=#CC4125;strokeColor=#660000" vertex="1" parent="1">
          <mxGeometry x="514" y="1270" width="10" height="90" as="geometry" />
        </mxCell>
        <mxCell id="IjBPq4v_4HBdx7vBGjAM-148" style="edgeStyle=orthogonalEdgeStyle;rounded=0;orthogonalLoop=1;jettySize=auto;html=1;exitX=1.4;exitY=0.91;exitDx=0;exitDy=0;exitPerimeter=0;" edge="1" parent="1">
          <mxGeometry relative="1" as="geometry">
            <mxPoint x="510" y="1401" as="targetPoint" />
            <mxPoint x="334" y="1402" as="sourcePoint" />
            <Array as="points">
              <mxPoint x="334" y="1401" />
            </Array>
          </mxGeometry>
        </mxCell>
        <mxCell id="IjBPq4v_4HBdx7vBGjAM-156" style="edgeStyle=orthogonalEdgeStyle;rounded=0;orthogonalLoop=1;jettySize=auto;html=1;entryX=1;entryY=0.5;entryDx=0;entryDy=0;" edge="1" parent="1" source="IjBPq4v_4HBdx7vBGjAM-140" target="IjBPq4v_4HBdx7vBGjAM-150">
          <mxGeometry relative="1" as="geometry">
            <Array as="points">
              <mxPoint x="260" y="1400" />
              <mxPoint x="260" y="1400" />
            </Array>
          </mxGeometry>
        </mxCell>
        <mxCell id="IjBPq4v_4HBdx7vBGjAM-140" value="" style="fillColor=#CC4125;strokeColor=#660000" vertex="1" parent="1">
          <mxGeometry x="320" y="1310" width="10" height="100" as="geometry" />
        </mxCell>
        <mxCell id="IjBPq4v_4HBdx7vBGjAM-141" value="" style="endArrow=none;dashed=1;html=1;dashPattern=1 3;strokeWidth=2;entryX=0.5;entryY=1;entryDx=0;entryDy=0;" edge="1" parent="1" target="IjBPq4v_4HBdx7vBGjAM-140">
          <mxGeometry width="50" height="50" relative="1" as="geometry">
            <mxPoint x="325" y="1570" as="sourcePoint" />
            <mxPoint x="324.05999999999995" y="920" as="targetPoint" />
          </mxGeometry>
        </mxCell>
        <mxCell id="IjBPq4v_4HBdx7vBGjAM-142" value="" style="endArrow=classic;html=1;entryX=1;entryY=0.1;entryDx=0;entryDy=0;entryPerimeter=0;" edge="1" parent="1" target="IjBPq4v_4HBdx7vBGjAM-140">
          <mxGeometry width="50" height="50" relative="1" as="geometry">
            <mxPoint x="510" y="1320" as="sourcePoint" />
            <mxPoint x="490" y="1260" as="targetPoint" />
          </mxGeometry>
        </mxCell>
        <mxCell id="IjBPq4v_4HBdx7vBGjAM-145" value="覆盖图形堡垒界面上" style="text;html=1;resizable=0;autosize=1;align=center;verticalAlign=middle;points=[];fillColor=none;strokeColor=none;rounded=0;" vertex="1" parent="1">
          <mxGeometry x="360" y="1290" width="120" height="20" as="geometry" />
        </mxCell>
        <mxCell id="IjBPq4v_4HBdx7vBGjAM-146" value="" style="fillColor=#CC4125;strokeColor=#660000" vertex="1" parent="1">
          <mxGeometry x="514" y="1390" width="10" height="90" as="geometry" />
        </mxCell>
        <mxCell id="IjBPq4v_4HBdx7vBGjAM-147" value="" style="endArrow=none;dashed=1;html=1;dashPattern=1 3;strokeWidth=2;entryX=0.5;entryY=1;entryDx=0;entryDy=0;" edge="1" parent="1" target="IjBPq4v_4HBdx7vBGjAM-146">
          <mxGeometry width="50" height="50" relative="1" as="geometry">
            <mxPoint x="519" y="1570" as="sourcePoint" />
            <mxPoint x="519" y="1230" as="targetPoint" />
          </mxGeometry>
        </mxCell>
        <mxCell id="IjBPq4v_4HBdx7vBGjAM-149" value="图形堡垒工具收到窗口非关闭消息" style="text;html=1;resizable=0;autosize=1;align=center;verticalAlign=middle;points=[];fillColor=none;strokeColor=none;rounded=0;" vertex="1" parent="1">
          <mxGeometry x="320" y="1370" width="200" height="20" as="geometry" />
        </mxCell>
        <mxCell id="IjBPq4v_4HBdx7vBGjAM-150" value="" style="fillColor=#CC4125;strokeColor=#660000" vertex="1" parent="1">
          <mxGeometry x="110" y="1350" width="10" height="100" as="geometry" />
        </mxCell>
        <mxCell id="IjBPq4v_4HBdx7vBGjAM-151" value="" style="endArrow=none;dashed=1;html=1;dashPattern=1 3;strokeWidth=2;entryX=0.425;entryY=0.983;entryDx=0;entryDy=0;entryPerimeter=0;" edge="1" parent="1" target="IjBPq4v_4HBdx7vBGjAM-150">
          <mxGeometry width="50" height="50" relative="1" as="geometry">
            <mxPoint x="114" y="1560" as="sourcePoint" />
            <mxPoint x="114.25" y="1168.81" as="targetPoint" />
          </mxGeometry>
        </mxCell>
        <mxCell id="IjBPq4v_4HBdx7vBGjAM-154" value="收到关闭消息关闭程序" style="text;html=1;resizable=0;autosize=1;align=center;verticalAlign=middle;points=[];fillColor=none;strokeColor=none;rounded=0;" vertex="1" parent="1">
          <mxGeometry x="146.25" y="1370" width="140" height="20" as="geometry" />
        </mxCell>
        <mxCell id="IjBPq4v_4HBdx7vBGjAM-157" value="" style="curved=1;endArrow=classic;html=1;entryX=1;entryY=0.5;entryDx=0;entryDy=0;exitX=1;exitY=0.5;exitDx=0;exitDy=0;" edge="1" parent="1" source="IjBPq4v_4HBdx7vBGjAM-146" target="IjBPq4v_4HBdx7vBGjAM-139">
          <mxGeometry width="50" height="50" relative="1" as="geometry">
            <mxPoint x="540" y="1440" as="sourcePoint" />
            <mxPoint x="620" y="1350" as="targetPoint" />
            <Array as="points">
              <mxPoint x="610" y="1390" />
            </Array>
          </mxGeometry>
        </mxCell>
        <mxCell id="IjBPq4v_4HBdx7vBGjAM-158" value="响应窗口消息" style="text;html=1;resizable=0;autosize=1;align=center;verticalAlign=middle;points=[];fillColor=none;strokeColor=none;rounded=0;" vertex="1" parent="1">
          <mxGeometry x="580" y="1370" width="90" height="20" as="geometry" />
        </mxCell>
      </root>
    </mxGraphModel>
  </diagram>
</mxfile>
